<svg width="1863" height="364" viewBox="0 0 1863 364" fill="none" xmlns="http://www.w3.org/2000/svg">
<path d="M1763.24 309.098L1757.26 317.257L1726.52 359.873H1672.03C1608.66 356.814 1581.05 311.793 1582 271.289C1583.02 230.785 1613.39 187.148 1677.71 187.148H1763.31L1725.87 236.831H1677.71C1650.25 236.831 1637.65 255.408 1637.58 272.6C1637.43 290.011 1650.03 308.879 1677.71 309.098H1763.24Z" fill="black" style="fill:black;fill-opacity:1;"/>
<path d="M92.9517 81.5176V359.946H94.4814H146.202H147.732V81.5176H92.9517Z" fill="black" style="fill:black;fill-opacity:1;"/>
<path d="M1333.01 83.0469V138.048H1470.61L1321.28 359.144L1320.7 359.946H1322.59H1383.64H1385.46L1572.38 83.0469H1333.01Z" fill="black" style="fill:black;fill-opacity:1;"/>
<path d="M1443.66 307.35V359.947H1560V307.35H1443.66Z" fill="black" style="fill:black;fill-opacity:1;"/>
<path d="M630.409 83.0469L533.378 359.946H472.042L567.907 83.0469H630.409Z" fill="black" style="fill:black;fill-opacity:1;"/>
<path d="M414.64 83.0469H352.138L388.196 186.565L429.282 304.58H490.618L414.64 83.0469Z" fill="black" style="fill:black;fill-opacity:1;"/>
<path d="M752.062 195.161H832.484C823.014 153.71 788.995 134.988 758.618 134.988C738.075 134.988 718.407 143.147 704.493 157.352C689.05 173.088 681.11 195.379 681.693 221.678C683.149 280.54 723.215 307.348 759.783 307.348H832.192L798.829 359.945H759.783C670.984 359.945 623.926 290.447 623.343 221.823C622.833 181.247 635.581 146.643 660.203 121.656C684.388 97.1061 719.645 83.1191 756.869 83.1191C820.245 83.1191 888.502 124.57 890.396 215.704L869.999 247.831H716.513L752.062 195.234V195.161Z" fill="black" style="fill:black;fill-opacity:1;"/>
<path d="M54.8534 81.5176H0.0732422V359.946H54.8534V81.5176Z" fill="black" style="fill:black;fill-opacity:1;"/>
<path d="M1790.63 110.001C1772.56 92.5901 1748.81 83.0469 1723.9 83.0469C1722.73 83.0469 1721.57 83.0469 1720.48 83.0469H1625.85V137.538H1726.38C1736.28 138.121 1745.68 142.273 1752.89 149.267C1761.63 157.717 1766.44 169.154 1766.44 181.466V330.005L1820.93 363.807V181.466C1820.93 154.512 1809.86 128.432 1790.63 110.001Z" fill="black" style="fill:black;fill-opacity:1;"/>
<path d="M1315.23 306.329L1279.03 359.946H1222.21C1206.98 359.946 1192.78 353.535 1182.65 342.025C1173.91 332.117 1169.54 319.15 1169.54 305.965V139.141H1132.46V83.0469H1288.06V139.141H1224.39V291.832C1224.39 299.044 1229.64 305.527 1236.78 306.256C1237.29 306.256 1237.8 306.256 1238.31 306.256H1315.31L1315.23 306.329Z" fill="black" style="fill:black;fill-opacity:1;"/>
<path d="M0.000488281 0V77.5113L54.8535 43.7094V0H0.000488281Z" fill="#4294EF" style="fill:#4294EF;fill:color(display-p3 0.2588 0.5804 0.9373);fill-opacity:1;"/>
<path d="M1169.54 1.5293V79.1134L1224.32 45.2386V1.5293H1169.54Z" fill="#4294EF" style="fill:#4294EF;fill:color(display-p3 0.2588 0.5804 0.9373);fill-opacity:1;"/>
<path d="M314.112 108.763C296.046 91.3518 272.298 81.8086 247.385 81.8086C246.219 81.8086 245.054 81.8086 243.961 81.8086H194.936L150.573 136.3H249.789C259.696 136.882 269.093 141.035 276.305 147.955C285.046 156.406 289.854 167.843 289.854 180.155V359.873H344.343V180.155C344.343 153.201 333.27 127.121 314.039 108.69L314.112 108.763Z" fill="black" style="fill:black;fill-opacity:1;"/>
<path d="M970.017 359.874L914.436 303.78H1056.63C1063.92 303.78 1070.62 301.158 1076.01 296.058C1081.54 290.886 1084.46 284.184 1084.46 276.608C1084.46 269.031 1081.54 262.329 1076.01 257.157C1070.62 252.13 1063.92 249.435 1056.63 249.435H990.414C979.196 249.435 968.414 247.25 958.58 242.951C948.6 238.653 939.713 232.607 932.21 225.103C924.707 217.6 918.661 208.64 914.363 198.586C910.065 188.533 907.879 177.679 907.879 166.169C907.879 154.659 910.065 144.095 914.363 134.115C918.661 124.062 924.707 115.102 932.21 107.598C939.786 100.095 948.673 93.9754 958.653 89.5316C968.487 85.1607 979.196 82.9023 990.414 82.9023H1094.58V138.996H990.414C982.984 138.996 976.355 141.691 971.183 146.864C966.01 152.036 963.315 158.665 963.315 166.096C963.315 173.526 966.01 180.083 971.037 185.474C976.209 191.01 982.911 193.924 990.487 193.924H1056.7C1068.21 193.924 1079.14 196.11 1089.12 200.408C1099.17 204.706 1108.13 210.752 1115.64 218.256C1123.14 225.759 1129.19 234.647 1133.48 244.627C1137.78 254.534 1139.97 265.243 1139.97 276.462C1139.97 287.681 1137.78 298.899 1133.48 308.88C1129.19 318.933 1123.14 327.893 1115.64 335.397C1108.13 342.9 1099.25 348.874 1089.12 353.245C1079.14 357.543 1068.21 359.728 1056.7 359.728H970.017V359.874Z" fill="black" style="fill:black;fill-opacity:1;"/>
<path d="M1832.95 110.585H1839.8L1844.6 120.419H1849.7L1844.39 109.492C1845.48 108.909 1846.35 108.181 1847.08 107.234C1848.25 105.631 1848.83 103.664 1848.83 101.479C1848.83 99.9487 1848.54 98.5646 1848.03 97.3262C1847.52 96.0877 1846.72 94.995 1845.62 94.1937C1844.53 93.3923 1843.22 92.8095 1841.69 92.591C1841.33 92.591 1840.96 92.5182 1840.6 92.4453C1840.23 92.4453 1839.94 92.4453 1839.65 92.4453H1828.51V120.346H1833.02V110.512L1832.95 110.585ZM1844.24 101.551C1844.24 102.207 1844.09 102.863 1843.88 103.518C1843.66 104.174 1843.29 104.684 1842.86 105.121C1842.42 105.558 1841.76 105.849 1841.04 106.068C1840.82 106.068 1840.53 106.141 1840.23 106.214C1839.94 106.214 1839.72 106.214 1839.51 106.214H1832.95V96.8162H1839.51C1839.51 96.8162 1840.02 96.8162 1840.31 96.8162C1840.6 96.8162 1840.82 96.8162 1841.11 96.9619C1841.84 97.1076 1842.42 97.399 1842.93 97.909C1843.44 98.3461 1843.73 98.9289 1843.95 99.5117C1844.17 100.167 1844.31 100.823 1844.31 101.479L1844.24 101.551Z" fill="black" style="fill:black;fill-opacity:1;"/>
<path d="M1838.27 82.4648C1824.79 82.4648 1813.86 93.3922 1813.86 106.869C1813.86 120.346 1824.79 131.274 1838.27 131.274C1851.74 131.274 1862.67 120.346 1862.67 106.869C1862.67 93.3922 1851.67 82.4648 1838.27 82.4648ZM1838.27 86.5444C1849.49 86.5444 1858.59 95.6505 1858.59 106.869C1858.59 118.088 1849.49 127.194 1838.27 127.194C1827.05 127.194 1817.94 118.088 1817.94 106.869C1817.94 95.6505 1827.05 86.5444 1838.27 86.5444Z" fill="black" style="fill:black;fill-opacity:1;"/>
</svg>
