<svg width="256" height="173" viewBox="0 0 256 173" fill="none" xmlns="http://www.w3.org/2000/svg">
<path d="M21.1729 158.29C20.8547 158.29 20.5837 158.204 20.3598 158.03C20.1359 157.856 19.9649 157.603 19.8466 157.272C19.7284 156.94 19.6692 156.539 19.6692 156.068C19.6692 155.601 19.7284 155.202 19.8466 154.871C19.9663 154.539 20.1381 154.285 20.3619 154.111C20.5872 153.935 20.8575 153.847 21.1729 153.847C21.4882 153.847 21.7578 153.935 21.9817 154.111C22.2069 154.285 22.3787 154.539 22.497 154.871C22.6166 155.202 22.6765 155.601 22.6765 156.068C22.6765 156.539 22.6173 156.94 22.4991 157.272C22.3808 157.603 22.2098 157.856 21.9859 158.03C21.762 158.204 21.491 158.29 21.1729 158.29ZM21.1729 157.825C21.4882 157.825 21.7332 157.673 21.9078 157.369C22.0823 157.065 22.1696 156.632 22.1696 156.068C22.1696 155.694 22.1295 155.375 22.0493 155.112C21.9704 154.849 21.8564 154.648 21.7071 154.51C21.5593 154.372 21.3812 154.303 21.1729 154.303C20.8603 154.303 20.616 154.457 20.4401 154.765C20.2641 155.072 20.1761 155.507 20.1761 156.068C20.1761 156.443 20.2155 156.761 20.2943 157.023C20.3732 157.285 20.4865 157.484 20.6343 157.621C20.7836 157.757 20.9631 157.825 21.1729 157.825Z" fill="#343434" style="fill:#343434;fill:color(display-p3 0.2038 0.2038 0.2038);fill-opacity:1;"/>
<path d="M19.8783 130.551V130.171L21.3059 128.608C21.4734 128.425 21.6114 128.266 21.7198 128.131C21.8282 127.995 21.9085 127.866 21.9606 127.747C22.0141 127.626 22.0408 127.499 22.0408 127.367C22.0408 127.215 22.0042 127.083 21.931 126.972C21.8592 126.861 21.7606 126.775 21.6353 126.714C21.51 126.654 21.3693 126.623 21.213 126.623C21.0468 126.623 20.9018 126.658 20.7779 126.727C20.6555 126.794 20.5604 126.889 20.4928 127.012C20.4267 127.134 20.3936 127.278 20.3936 127.443H19.8952C19.8952 127.189 19.9536 126.967 20.0705 126.775C20.1873 126.584 20.3464 126.435 20.5478 126.328C20.7505 126.221 20.9779 126.167 21.2299 126.167C21.4833 126.167 21.7078 126.221 21.9035 126.328C22.0992 126.435 22.2527 126.579 22.3639 126.761C22.4751 126.942 22.5307 127.144 22.5307 127.367C22.5307 127.526 22.5019 127.681 22.4442 127.833C22.3879 127.984 22.2893 128.152 22.1485 128.338C22.0091 128.523 21.8155 128.748 21.5678 129.014L20.5963 130.053V130.087H22.6068V130.551H19.8783Z" fill="#343434" style="fill:#343434;fill:color(display-p3 0.2038 0.2038 0.2038);fill-opacity:1;"/>
<path d="M19.023 101.985V101.554L20.9236 98.5466H21.2362V99.2139H21.025L19.589 101.486V101.52H22.1485V101.985H19.023ZM21.0588 102.872V101.854V101.653V98.5466H21.5572V102.872H21.0588Z" fill="#343434" style="fill:#343434;fill:color(display-p3 0.2038 0.2038 0.2038);fill-opacity:1;"/>
<path d="M21.204 75.25C21.0266 75.2472 20.8492 75.2134 20.6718 75.1487C20.4944 75.0839 20.3325 74.9748 20.1861 74.8214C20.0397 74.6665 19.9221 74.4574 19.8334 74.1941C19.7447 73.9295 19.7004 73.5972 19.7004 73.1974C19.7004 72.8144 19.7363 72.4751 19.8081 72.1795C19.8799 71.8824 19.9841 71.6325 20.1206 71.4298C20.2572 71.2256 20.4219 71.0708 20.6148 70.9652C20.8091 70.8596 21.028 70.8068 21.2716 70.8068C21.5137 70.8068 21.7291 70.8554 21.9178 70.9525C22.1079 71.0482 22.2627 71.182 22.3824 71.3537C22.5021 71.5255 22.5795 71.7233 22.6147 71.9472H22.0994C22.0515 71.7529 21.9586 71.5917 21.8207 71.4636C21.6827 71.3354 21.4997 71.2714 21.2716 71.2714C20.9365 71.2714 20.6725 71.4171 20.4796 71.7085C20.2882 72 20.1917 72.409 20.1903 72.9355H20.2241C20.303 72.8158 20.3966 72.7138 20.505 72.6293C20.6148 72.5434 20.7359 72.4772 20.8682 72.4308C21.0006 72.3843 21.1406 72.3611 21.2885 72.3611C21.5363 72.3611 21.7629 72.423 21.9685 72.5469C22.174 72.6694 22.3388 72.8391 22.4626 73.0559C22.5865 73.2713 22.6485 73.5184 22.6485 73.7971C22.6485 74.0646 22.5886 74.3096 22.469 74.532C22.3493 74.7531 22.1811 74.9291 21.9643 75.06C21.7488 75.1895 21.4954 75.2529 21.204 75.25ZM21.204 74.7854C21.3814 74.7854 21.5405 74.7411 21.6813 74.6524C21.8235 74.5637 21.9354 74.4447 22.0171 74.2955C22.1001 74.1463 22.1416 73.9801 22.1416 73.7971C22.1416 73.6183 22.1015 73.4557 22.0213 73.3093C21.9424 73.1615 21.8333 73.0439 21.6939 72.9566C21.556 72.8693 21.3983 72.8257 21.2209 72.8257C21.0871 72.8257 20.9625 72.8524 20.8471 72.9059C20.7317 72.958 20.6303 73.0298 20.543 73.1213C20.4571 73.2128 20.3895 73.3177 20.3403 73.436C20.291 73.5529 20.2664 73.676 20.2664 73.8056C20.2664 73.9773 20.3065 74.1378 20.3867 74.2871C20.4684 74.4363 20.5796 74.5567 20.7204 74.6482C20.8626 74.7397 21.0238 74.7854 21.204 74.7854Z" fill="#343434" style="fill:#343434;fill:color(display-p3 0.2038 0.2038 0.2038);fill-opacity:1;"/>
<path d="M21.1998 47.5699C20.9098 47.5699 20.6535 47.5185 20.4311 47.4157C20.21 47.3115 20.0376 47.1686 19.9137 46.987C19.7898 46.804 19.7285 46.5956 19.73 46.3619C19.7285 46.1789 19.7644 46.0099 19.8377 45.8551C19.9109 45.6988 20.0108 45.5686 20.1375 45.4644C20.2657 45.3588 20.4085 45.2919 20.5662 45.2638V45.2384C20.3593 45.1849 20.1946 45.0688 20.0721 44.89C19.9496 44.7098 19.889 44.5049 19.8905 44.2754C19.889 44.0558 19.9447 43.8594 20.0573 43.6862C20.1699 43.5131 20.3248 43.3765 20.5219 43.2765C20.7204 43.1766 20.9464 43.1266 21.1998 43.1266C21.4504 43.1266 21.6742 43.1766 21.8713 43.2765C22.0684 43.3765 22.2233 43.5131 22.3359 43.6862C22.45 43.8594 22.5077 44.0558 22.5091 44.2754C22.5077 44.5049 22.445 44.7098 22.3212 44.89C22.1987 45.0688 22.0361 45.1849 21.8333 45.2384V45.2638C21.9896 45.2919 22.1304 45.3588 22.2557 45.4644C22.381 45.5686 22.4809 45.6988 22.5556 45.8551C22.6302 46.0099 22.6682 46.1789 22.6696 46.3619C22.6682 46.5956 22.6048 46.804 22.4795 46.987C22.3556 47.1686 22.1832 47.3115 21.9621 47.4157C21.7425 47.5185 21.4884 47.5699 21.1998 47.5699ZM21.1998 47.1053C21.3955 47.1053 21.5644 47.0736 21.7066 47.0102C21.8488 46.9469 21.9586 46.8575 22.0361 46.742C22.1135 46.6266 22.1529 46.4914 22.1543 46.3366C22.1529 46.1733 22.1107 46.029 22.0276 45.9036C21.9445 45.7783 21.8312 45.6798 21.6876 45.608C21.5454 45.5362 21.3828 45.5003 21.1998 45.5003C21.0153 45.5003 20.8506 45.5362 20.7056 45.608C20.562 45.6798 20.4487 45.7783 20.3656 45.9036C20.284 46.029 20.2438 46.1733 20.2452 46.3366C20.2438 46.4914 20.2811 46.6266 20.3572 46.742C20.4346 46.8575 20.5451 46.9469 20.6887 47.0102C20.8323 47.0736 21.0027 47.1053 21.1998 47.1053ZM21.1998 45.0526C21.3546 45.0526 21.4919 45.0216 21.6116 44.9597C21.7327 44.8977 21.8277 44.8111 21.8967 44.6999C21.9657 44.5887 22.0009 44.4585 22.0023 44.3092C22.0009 44.1628 21.9664 44.0354 21.8988 43.927C21.8312 43.8172 21.7376 43.7327 21.6179 43.6736C21.4982 43.613 21.3589 43.5828 21.1998 43.5828C21.0379 43.5828 20.8964 43.613 20.7753 43.6736C20.6542 43.7327 20.5606 43.8172 20.4944 43.927C20.4283 44.0354 20.3959 44.1628 20.3973 44.3092C20.3959 44.4585 20.429 44.5887 20.4965 44.6999C20.5655 44.8111 20.6606 44.8977 20.7816 44.9597C20.9027 45.0216 21.0421 45.0526 21.1998 45.0526Z" fill="#343434" style="fill:#343434;fill:color(display-p3 0.2038 0.2038 0.2038);fill-opacity:1;"/>
<path d="M18.8152 15.5061V19.8311H18.2914V16.0551H18.2661L17.2102 16.7562V16.2241L18.2914 15.5061H18.8152ZM21.4697 19.8902C21.1515 19.8902 20.8805 19.8036 20.6567 19.6304C20.4328 19.4559 20.2618 19.2031 20.1435 18.8723C20.0252 18.54 19.9661 18.1388 19.9661 17.6686C19.9661 17.2011 20.0252 16.802 20.1435 16.4712C20.2632 16.1389 20.4349 15.8855 20.6588 15.7109C20.884 15.5349 21.1544 15.4469 21.4697 15.4469C21.7851 15.4469 22.0547 15.5349 22.2786 15.7109C22.5038 15.8855 22.6756 16.1389 22.7938 16.4712C22.9135 16.802 22.9733 17.2011 22.9733 17.6686C22.9733 18.1388 22.9142 18.54 22.7959 18.8723C22.6777 19.2031 22.5066 19.4559 22.2828 19.6304C22.0589 19.8036 21.7879 19.8902 21.4697 19.8902ZM21.4697 19.4256C21.7851 19.4256 22.0301 19.2735 22.2046 18.9694C22.3792 18.6653 22.4665 18.2317 22.4665 17.6686C22.4665 17.2941 22.4264 16.9752 22.3461 16.7119C22.2673 16.4486 22.1533 16.248 22.004 16.11C21.8562 15.9721 21.6781 15.9031 21.4697 15.9031C21.1572 15.9031 20.9129 16.0572 20.7369 16.3656C20.5609 16.6725 20.4729 17.1068 20.4729 17.6686C20.4729 18.043 20.5124 18.3612 20.5912 18.6231C20.6701 18.885 20.7834 19.0842 20.9312 19.2207C21.0804 19.3573 21.26 19.4256 21.4697 19.4256Z" fill="#343434" style="fill:#343434;fill:color(display-p3 0.2038 0.2038 0.2038);fill-opacity:1;"/>
<path d="M39.7901 165.529V161.204H40.3138V163.35H40.3645L42.3073 161.204H42.9916L41.1754 163.156L42.9916 165.529H42.358L40.8544 163.519L40.3138 164.127V165.529H39.7901ZM44.7238 165.597C44.4112 165.597 44.1416 165.528 43.915 165.39C43.6897 165.251 43.5158 165.056 43.3933 164.807C43.2723 164.556 43.2117 164.265 43.2117 163.933C43.2117 163.601 43.2723 163.308 43.3933 163.054C43.5158 162.799 43.6862 162.601 43.9044 162.459C44.124 162.315 44.3803 162.243 44.6731 162.243C44.842 162.243 45.0089 162.271 45.1736 162.328C45.3383 162.384 45.4883 162.476 45.6234 162.602C45.7586 162.728 45.8663 162.894 45.9465 163.101C46.0268 163.308 46.0669 163.562 46.0669 163.865V164.076H43.5665V163.646H45.5601C45.5601 163.463 45.5235 163.299 45.4502 163.156C45.3784 163.012 45.2757 162.899 45.1419 162.816C45.0096 162.733 44.8533 162.691 44.6731 162.691C44.4746 162.691 44.3028 162.74 44.1578 162.839C44.0142 162.936 43.9037 163.063 43.8263 163.219C43.7488 163.375 43.7101 163.543 43.7101 163.722V164.009C43.7101 164.254 43.7523 164.461 43.8368 164.632C43.9227 164.801 44.0417 164.93 44.1937 165.018C44.3458 165.106 44.5225 165.149 44.7238 165.149C44.8547 165.149 44.973 165.131 45.0786 165.094C45.1856 165.056 45.2778 165 45.3552 164.925C45.4326 164.849 45.4925 164.755 45.5347 164.642L46.0162 164.777C45.9655 164.941 45.8804 165.084 45.7607 165.208C45.641 165.331 45.4932 165.427 45.3172 165.496C45.1412 165.563 44.9434 165.597 44.7238 165.597ZM46.825 165.529V162.286H47.3065V162.775H47.3403C47.3995 162.615 47.5065 162.485 47.6613 162.385C47.8162 162.285 47.9908 162.235 48.1851 162.235C48.2217 162.235 48.2674 162.236 48.3223 162.237C48.3772 162.238 48.4188 162.24 48.4469 162.243V162.75C48.43 162.746 48.3913 162.74 48.3308 162.731C48.2716 162.721 48.209 162.716 48.1428 162.716C47.9851 162.716 47.8443 162.749 47.7205 162.816C47.598 162.88 47.5008 162.97 47.429 163.086C47.3586 163.2 47.3234 163.33 47.3234 163.477V165.529H46.825ZM49.9922 165.605C49.7867 165.605 49.6001 165.567 49.4326 165.489C49.2651 165.41 49.132 165.297 49.0335 165.149C48.9349 165 48.8856 164.82 48.8856 164.609C48.8856 164.423 48.9223 164.272 48.9955 164.157C49.0687 164.04 49.1665 163.948 49.289 163.882C49.4115 163.816 49.5466 163.767 49.6945 163.734C49.8437 163.7 49.9936 163.674 50.1443 163.654C50.3414 163.629 50.5012 163.61 50.6237 163.597C50.7476 163.583 50.8377 163.56 50.894 163.527C50.9517 163.495 50.9806 163.439 50.9806 163.358V163.341C50.9806 163.133 50.9235 162.971 50.8095 162.856C50.6969 162.74 50.5258 162.683 50.2963 162.683C50.0584 162.683 49.8719 162.735 49.7367 162.839C49.6016 162.943 49.5065 163.054 49.4516 163.173L48.9786 163.004C49.063 162.806 49.1757 162.653 49.3165 162.543C49.4587 162.432 49.6135 162.355 49.7811 162.311C49.95 162.266 50.1161 162.243 50.2794 162.243C50.3836 162.243 50.5033 162.256 50.6385 162.281C50.775 162.305 50.9067 162.355 51.0334 162.431C51.1615 162.507 51.2678 162.622 51.3522 162.775C51.4367 162.929 51.479 163.134 51.479 163.392V165.529H50.9806V165.09H50.9552C50.9214 165.16 50.8651 165.236 50.7863 165.316C50.7074 165.396 50.6026 165.465 50.4716 165.521C50.3407 165.577 50.1809 165.605 49.9922 165.605ZM50.0683 165.158C50.2654 165.158 50.4315 165.119 50.5667 165.041C50.7032 164.964 50.806 164.864 50.875 164.742C50.9454 164.619 50.9806 164.49 50.9806 164.355V163.899C50.9594 163.924 50.913 163.948 50.8412 163.969C50.7708 163.988 50.6891 164.006 50.5962 164.021C50.5047 164.036 50.4153 164.048 50.328 164.059C50.2421 164.069 50.1724 164.078 50.1189 164.085C49.9894 164.102 49.8683 164.129 49.7557 164.167C49.6445 164.204 49.5544 164.259 49.4854 164.334C49.4178 164.407 49.384 164.507 49.384 164.634C49.384 164.807 49.4481 164.938 49.5762 165.027C49.7057 165.114 49.8698 165.158 50.0683 165.158ZM52.887 161.204V165.529H52.3886V161.204H52.887ZM54.7544 165.605C54.5488 165.605 54.3623 165.567 54.1948 165.489C54.0272 165.41 53.8942 165.297 53.7956 165.149C53.6971 165 53.6478 164.82 53.6478 164.609C53.6478 164.423 53.6844 164.272 53.7576 164.157C53.8308 164.04 53.9287 163.948 54.0511 163.882C54.1736 163.816 54.3088 163.767 54.4566 163.734C54.6059 163.7 54.7558 163.674 54.9064 163.654C55.1035 163.629 55.2633 163.61 55.3858 163.597C55.5097 163.583 55.5998 163.56 55.6561 163.527C55.7139 163.495 55.7427 163.439 55.7427 163.358V163.341C55.7427 163.133 55.6857 162.971 55.5717 162.856C55.459 162.74 55.288 162.683 55.0585 162.683C54.8206 162.683 54.634 162.735 54.4989 162.839C54.3637 162.943 54.2687 163.054 54.2138 163.173L53.7407 163.004C53.8252 162.806 53.9378 162.653 54.0786 162.543C54.2208 162.432 54.3757 162.355 54.5432 162.311C54.7121 162.266 54.8783 162.243 55.0416 162.243C55.1458 162.243 55.2654 162.256 55.4006 162.281C55.5372 162.305 55.6688 162.355 55.7955 162.431C55.9236 162.507 56.0299 162.622 56.1144 162.775C56.1989 162.929 56.2411 163.134 56.2411 163.392V165.529H55.7427V165.09H55.7174C55.6836 165.16 55.6273 165.236 55.5484 165.316C55.4696 165.396 55.3647 165.465 55.2338 165.521C55.1028 165.577 54.943 165.605 54.7544 165.605ZM54.8304 165.158C55.0275 165.158 55.1936 165.119 55.3288 165.041C55.4654 164.964 55.5681 164.864 55.6371 164.742C55.7075 164.619 55.7427 164.49 55.7427 164.355V163.899C55.7216 163.924 55.6751 163.948 55.6033 163.969C55.5329 163.988 55.4513 164.006 55.3584 164.021C55.2669 164.036 55.1775 164.048 55.0902 164.059C55.0043 164.069 54.9346 164.078 54.8811 164.085C54.7516 164.102 54.6305 164.129 54.5179 164.167C54.4066 164.204 54.3165 164.259 54.2475 164.334C54.18 164.407 54.1462 164.507 54.1462 164.634C54.1462 164.807 54.2102 164.938 54.3384 165.027C54.4679 165.114 54.6319 165.158 54.8304 165.158Z" fill="#343434" style="fill:#343434;fill:color(display-p3 0.2038 0.2038 0.2038);fill-opacity:1;"/>
<path d="M86.2701 161.204H86.7939V164.296C86.7939 164.572 86.7432 164.806 86.6418 164.999C86.5404 165.192 86.3975 165.339 86.2131 165.438C86.0287 165.538 85.8112 165.588 85.5606 165.588C85.324 165.588 85.1136 165.545 84.9291 165.46C84.7447 165.372 84.5997 165.248 84.4941 165.088C84.3885 164.927 84.3357 164.737 84.3357 164.516H84.851C84.851 164.638 84.8813 164.745 84.9418 164.837C85.0037 164.927 85.0882 164.997 85.1952 165.048C85.3022 165.098 85.424 165.124 85.5606 165.124C85.7112 165.124 85.8393 165.092 85.9449 165.029C86.0505 164.965 86.1307 164.873 86.1857 164.75C86.242 164.626 86.2701 164.475 86.2701 164.296V161.204ZM89.0007 165.588C88.7163 165.588 88.4713 165.536 88.2658 165.432C88.0602 165.328 87.9019 165.185 87.7906 165.003C87.6794 164.822 87.6238 164.614 87.6238 164.38C87.6238 164.2 87.6618 164.04 87.7378 163.901C87.8153 163.76 87.9216 163.63 88.0567 163.51C88.1933 163.389 88.3503 163.268 88.5277 163.147L89.1528 162.683C89.2752 162.602 89.3731 162.516 89.4463 162.425C89.5209 162.333 89.5582 162.214 89.5582 162.066C89.5582 161.956 89.5097 161.85 89.4125 161.747C89.3168 161.644 89.1908 161.593 89.0345 161.593C88.9247 161.593 88.8275 161.621 88.7431 161.677C88.66 161.732 88.5945 161.803 88.5467 161.889C88.5002 161.973 88.477 162.06 88.477 162.15C88.477 162.252 88.5044 162.355 88.5593 162.459C88.6157 162.561 88.6867 162.667 88.7726 162.775C88.8599 162.882 88.95 162.992 89.0429 163.105L91.0281 165.529H90.4283L88.7895 163.553C88.6375 163.37 88.4995 163.203 88.3756 163.054C88.2517 162.905 88.1532 162.758 88.08 162.613C88.0067 162.468 87.9701 162.311 87.9701 162.142C87.9701 161.948 88.0131 161.777 88.099 161.631C88.1862 161.483 88.308 161.368 88.4643 161.287C88.622 161.204 88.8064 161.162 89.0176 161.162C89.2344 161.162 89.421 161.204 89.5772 161.289C89.7335 161.372 89.8539 161.482 89.9384 161.62C90.0228 161.757 90.0651 161.905 90.0651 162.066C90.0651 162.273 90.0137 162.452 89.9109 162.604C89.8081 162.756 89.668 162.898 89.4906 163.029L88.629 163.671C88.4347 163.815 88.3031 163.954 88.2341 164.089C88.1651 164.224 88.1306 164.321 88.1306 164.38C88.1306 164.516 88.1658 164.642 88.2362 164.758C88.3066 164.875 88.4059 164.97 88.534 165.041C88.6621 165.113 88.8121 165.149 88.9838 165.149C89.1471 165.149 89.3062 165.115 89.4611 165.046C89.6159 164.975 89.756 164.874 89.8813 164.742C90.008 164.609 90.108 164.45 90.1812 164.264C90.2558 164.078 90.2931 163.869 90.2931 163.637H90.7746C90.7746 163.924 90.7415 164.159 90.6754 164.34C90.6092 164.522 90.5346 164.664 90.4515 164.767C90.3685 164.87 90.3016 164.946 90.2509 164.997C90.234 165.018 90.2185 165.039 90.2044 165.06C90.1904 165.082 90.1749 165.103 90.158 165.124C90.0186 165.28 89.8426 165.397 89.63 165.474C89.4174 165.55 89.2077 165.588 89.0007 165.588ZM91.6473 165.529V161.204H92.1711V163.35H92.2218L94.1646 161.204H94.8489L93.0327 163.156L94.8489 165.529H94.2153L92.7117 163.519L92.1711 164.127V165.529H91.6473Z" fill="#343434" style="fill:#343434;fill:color(display-p3 0.2038 0.2038 0.2038);fill-opacity:1;"/>
<path d="M122.152 165.529V161.204H123.614C123.953 161.204 124.23 161.266 124.446 161.388C124.663 161.509 124.823 161.673 124.927 161.88C125.031 162.087 125.084 162.318 125.084 162.573C125.084 162.828 125.031 163.059 124.927 163.268C124.824 163.476 124.665 163.642 124.45 163.766C124.235 163.888 123.959 163.95 123.622 163.95H122.575V163.485H123.605C123.838 163.485 124.024 163.445 124.165 163.365C124.306 163.284 124.408 163.176 124.471 163.039C124.536 162.901 124.568 162.746 124.568 162.573C124.568 162.4 124.536 162.245 124.471 162.108C124.408 161.972 124.305 161.865 124.163 161.787C124.021 161.708 123.832 161.669 123.597 161.669H122.676V165.529H122.152ZM127.904 164.203V162.286H128.402V165.529H127.904V164.98H127.87C127.794 165.145 127.676 165.285 127.515 165.4C127.355 165.515 127.152 165.572 126.907 165.572C126.704 165.572 126.524 165.527 126.366 165.438C126.209 165.348 126.085 165.213 125.995 165.033C125.905 164.851 125.86 164.623 125.86 164.347V162.286H126.358V164.313C126.358 164.549 126.424 164.738 126.556 164.879C126.69 165.02 126.861 165.09 127.068 165.09C127.191 165.09 127.317 165.058 127.446 164.995C127.575 164.932 127.683 164.835 127.771 164.704C127.859 164.573 127.904 164.406 127.904 164.203ZM129.813 163.578V165.529H129.315V162.286H129.797V162.792H129.839C129.915 162.628 130.03 162.495 130.185 162.395C130.34 162.294 130.54 162.243 130.785 162.243C131.005 162.243 131.197 162.288 131.361 162.378C131.526 162.467 131.654 162.602 131.746 162.784C131.837 162.964 131.883 163.192 131.883 163.468V165.529H131.385V163.502C131.385 163.247 131.318 163.049 131.186 162.906C131.054 162.763 130.872 162.691 130.641 162.691C130.482 162.691 130.34 162.726 130.215 162.794C130.091 162.863 129.993 162.964 129.921 163.096C129.849 163.229 129.813 163.389 129.813 163.578ZM132.794 162.286H133.292V165.766C133.292 165.966 133.258 166.139 133.189 166.285C133.121 166.432 133.018 166.545 132.88 166.625C132.744 166.706 132.571 166.746 132.363 166.746C132.346 166.746 132.329 166.746 132.312 166.746C132.295 166.746 132.278 166.746 132.262 166.746V166.281C132.278 166.281 132.294 166.281 132.308 166.281C132.322 166.281 132.338 166.281 132.354 166.281C132.507 166.281 132.618 166.236 132.688 166.146C132.759 166.057 132.794 165.931 132.794 165.766V162.286ZM133.039 161.745C132.942 161.745 132.858 161.712 132.787 161.646C132.718 161.579 132.684 161.5 132.684 161.407C132.684 161.314 132.718 161.235 132.787 161.168C132.858 161.102 132.942 161.069 133.039 161.069C133.136 161.069 133.219 161.102 133.288 161.168C133.358 161.235 133.394 161.314 133.394 161.407C133.394 161.5 133.358 161.579 133.288 161.646C133.219 161.712 133.136 161.745 133.039 161.745ZM135.16 165.605C134.954 165.605 134.767 165.567 134.6 165.489C134.432 165.41 134.299 165.297 134.201 165.149C134.102 165 134.053 164.82 134.053 164.609C134.053 164.423 134.09 164.272 134.163 164.157C134.236 164.04 134.334 163.948 134.456 163.882C134.579 163.816 134.714 163.767 134.862 163.734C135.011 163.7 135.161 163.674 135.312 163.654C135.509 163.629 135.668 163.61 135.791 163.597C135.915 163.583 136.005 163.56 136.061 163.527C136.119 163.495 136.148 163.439 136.148 163.358V163.341C136.148 163.133 136.091 162.971 135.977 162.856C135.864 162.74 135.693 162.683 135.464 162.683C135.226 162.683 135.039 162.735 134.904 162.839C134.769 162.943 134.674 163.054 134.619 163.173L134.146 163.004C134.23 162.806 134.343 162.653 134.484 162.543C134.626 162.432 134.781 162.355 134.948 162.311C135.117 162.266 135.283 162.243 135.447 162.243C135.551 162.243 135.671 162.256 135.806 162.281C135.942 162.305 136.074 162.355 136.201 162.431C136.329 162.507 136.435 162.622 136.52 162.775C136.604 162.929 136.646 163.134 136.646 163.392V165.529H136.148V165.09H136.122C136.089 165.16 136.032 165.236 135.954 165.316C135.875 165.396 135.77 165.465 135.639 165.521C135.508 165.577 135.348 165.605 135.16 165.605ZM135.236 165.158C135.433 165.158 135.599 165.119 135.734 165.041C135.87 164.964 135.973 164.864 136.042 164.742C136.113 164.619 136.148 164.49 136.148 164.355V163.899C136.127 163.924 136.08 163.948 136.008 163.969C135.938 163.988 135.856 164.006 135.763 164.021C135.672 164.036 135.583 164.048 135.495 164.059C135.409 164.069 135.34 164.078 135.286 164.085C135.157 164.102 135.036 164.129 134.923 164.167C134.812 164.204 134.722 164.259 134.653 164.334C134.585 164.407 134.551 164.507 134.551 164.634C134.551 164.807 134.615 164.938 134.743 165.027C134.873 165.114 135.037 165.158 135.236 165.158ZM137.623 165.529V161.204H138.122V162.801H138.164C138.201 162.745 138.251 162.673 138.316 162.585C138.382 162.497 138.477 162.418 138.599 162.349C138.723 162.279 138.891 162.243 139.102 162.243C139.375 162.243 139.616 162.312 139.824 162.448C140.032 162.585 140.195 162.778 140.312 163.029C140.429 163.28 140.487 163.575 140.487 163.916C140.487 164.259 140.429 164.557 140.312 164.809C140.195 165.06 140.033 165.254 139.826 165.392C139.619 165.529 139.381 165.597 139.11 165.597C138.902 165.597 138.735 165.562 138.61 165.493C138.484 165.423 138.388 165.343 138.32 165.255C138.253 165.165 138.201 165.09 138.164 165.031H138.105V165.529H137.623ZM138.113 163.907C138.113 164.152 138.149 164.369 138.221 164.556C138.293 164.742 138.398 164.887 138.536 164.993C138.674 165.097 138.843 165.149 139.043 165.149C139.251 165.149 139.425 165.094 139.564 164.984C139.705 164.873 139.811 164.724 139.881 164.537C139.953 164.348 139.989 164.138 139.989 163.907C139.989 163.679 139.954 163.474 139.883 163.291C139.814 163.106 139.709 162.961 139.568 162.854C139.429 162.745 139.254 162.691 139.043 162.691C138.84 162.691 138.67 162.742 138.532 162.845C138.394 162.947 138.289 163.089 138.219 163.272C138.149 163.453 138.113 163.665 138.113 163.907Z" fill="#343434" style="fill:#343434;fill:color(display-p3 0.2038 0.2038 0.2038);fill-opacity:1;"/>
<path d="M158.972 165.529V161.204H159.495V163.35H159.546L161.489 161.204H162.173L160.357 163.156L162.173 165.529H161.54L160.036 163.519L159.495 164.127V165.529H158.972ZM163.738 165.605C163.533 165.605 163.346 165.567 163.178 165.489C163.011 165.41 162.878 165.297 162.779 165.149C162.681 165 162.632 164.82 162.632 164.609C162.632 164.423 162.668 164.272 162.741 164.157C162.815 164.04 162.912 163.948 163.035 163.882C163.157 163.816 163.293 163.767 163.44 163.734C163.59 163.7 163.74 163.674 163.89 163.654C164.087 163.629 164.247 163.61 164.37 163.597C164.493 163.583 164.584 163.56 164.64 163.527C164.698 163.495 164.726 163.439 164.726 163.358V163.341C164.726 163.133 164.669 162.971 164.555 162.856C164.443 162.74 164.272 162.683 164.042 162.683C163.804 162.683 163.618 162.735 163.483 162.839C163.347 162.943 163.252 163.054 163.197 163.173L162.724 163.004C162.809 162.806 162.922 162.653 163.062 162.543C163.205 162.432 163.359 162.355 163.527 162.311C163.696 162.266 163.862 162.243 164.025 162.243C164.129 162.243 164.249 162.256 164.384 162.281C164.521 162.305 164.653 162.355 164.779 162.431C164.907 162.507 165.014 162.622 165.098 162.775C165.183 162.929 165.225 163.134 165.225 163.392V165.529H164.726V165.09H164.701C164.667 165.16 164.611 165.236 164.532 165.316C164.453 165.396 164.348 165.465 164.217 165.521C164.087 165.577 163.927 165.605 163.738 165.605ZM163.814 165.158C164.011 165.158 164.177 165.119 164.313 165.041C164.449 164.964 164.552 164.864 164.621 164.742C164.691 164.619 164.726 164.49 164.726 164.355V163.899C164.705 163.924 164.659 163.948 164.587 163.969C164.517 163.988 164.435 164.006 164.342 164.021C164.251 164.036 164.161 164.048 164.074 164.059C163.988 164.069 163.918 164.078 163.865 164.085C163.735 164.102 163.614 164.129 163.502 164.167C163.39 164.204 163.3 164.259 163.231 164.334C163.164 164.407 163.13 164.507 163.13 164.634C163.13 164.807 163.194 164.938 163.322 165.027C163.452 165.114 163.616 165.158 163.814 165.158ZM166.134 165.529V162.286H166.616V162.775H166.65C166.709 162.615 166.816 162.485 166.971 162.385C167.126 162.285 167.3 162.235 167.494 162.235C167.531 162.235 167.577 162.236 167.632 162.237C167.687 162.238 167.728 162.24 167.756 162.243V162.75C167.739 162.746 167.701 162.74 167.64 162.731C167.581 162.721 167.518 162.716 167.452 162.716C167.295 162.716 167.154 162.749 167.03 162.816C166.907 162.88 166.81 162.97 166.738 163.086C166.668 163.2 166.633 163.33 166.633 163.477V165.529H166.134ZM168.846 163.578V165.529H168.347V162.286H168.829V162.792H168.871C168.947 162.628 169.062 162.495 169.217 162.395C169.372 162.294 169.572 162.243 169.817 162.243C170.037 162.243 170.229 162.288 170.393 162.378C170.558 162.467 170.686 162.602 170.778 162.784C170.869 162.964 170.915 163.192 170.915 163.468V165.529H170.417V163.502C170.417 163.247 170.351 163.049 170.218 162.906C170.086 162.763 169.904 162.691 169.673 162.691C169.514 162.691 169.372 162.726 169.247 162.794C169.123 162.863 169.025 162.964 168.953 163.096C168.881 163.229 168.846 163.389 168.846 163.578ZM172.78 165.605C172.575 165.605 172.388 165.567 172.221 165.489C172.053 165.41 171.92 165.297 171.822 165.149C171.723 165 171.674 164.82 171.674 164.609C171.674 164.423 171.71 164.272 171.784 164.157C171.857 164.04 171.955 163.948 172.077 163.882C172.2 163.816 172.335 163.767 172.483 163.734C172.632 163.7 172.782 163.674 172.932 163.654C173.13 163.629 173.289 163.61 173.412 163.597C173.536 163.583 173.626 163.56 173.682 163.527C173.74 163.495 173.769 163.439 173.769 163.358V163.341C173.769 163.133 173.712 162.971 173.598 162.856C173.485 162.74 173.314 162.683 173.084 162.683C172.847 162.683 172.66 162.735 172.525 162.839C172.39 162.943 172.295 163.054 172.24 163.173L171.767 163.004C171.851 162.806 171.964 162.653 172.105 162.543C172.247 162.432 172.402 162.355 172.569 162.311C172.738 162.266 172.904 162.243 173.068 162.243C173.172 162.243 173.291 162.256 173.427 162.281C173.563 162.305 173.695 162.355 173.822 162.431C173.95 162.507 174.056 162.622 174.14 162.775C174.225 162.929 174.267 163.134 174.267 163.392V165.529H173.769V165.09H173.743C173.71 165.16 173.653 165.236 173.574 165.316C173.496 165.396 173.391 165.465 173.26 165.521C173.129 165.577 172.969 165.605 172.78 165.605ZM172.856 165.158C173.054 165.158 173.22 165.119 173.355 165.041C173.491 164.964 173.594 164.864 173.663 164.742C173.734 164.619 173.769 164.49 173.769 164.355V163.899C173.748 163.924 173.701 163.948 173.629 163.969C173.559 163.988 173.477 164.006 173.384 164.021C173.293 164.036 173.203 164.048 173.116 164.059C173.03 164.069 172.961 164.078 172.907 164.085C172.778 164.102 172.656 164.129 172.544 164.167C172.433 164.204 172.343 164.259 172.274 164.334C172.206 164.407 172.172 164.507 172.172 164.634C172.172 164.807 172.236 164.938 172.364 165.027C172.494 165.114 172.658 165.158 172.856 165.158ZM176.587 162.286V162.708H174.906V162.286H176.587ZM175.396 161.508H175.895V164.6C175.895 164.741 175.915 164.846 175.956 164.917C175.998 164.986 176.052 165.032 176.117 165.056C176.183 165.079 176.252 165.09 176.326 165.09C176.38 165.09 176.426 165.087 176.461 165.082C176.496 165.075 176.524 165.069 176.545 165.065L176.647 165.512C176.613 165.525 176.566 165.538 176.505 165.55C176.445 165.564 176.368 165.572 176.275 165.572C176.134 165.572 175.996 165.541 175.861 165.481C175.727 165.42 175.616 165.328 175.527 165.204C175.44 165.08 175.396 164.924 175.396 164.735V161.508ZM178.292 165.605C178.086 165.605 177.9 165.567 177.732 165.489C177.565 165.41 177.431 165.297 177.333 165.149C177.234 165 177.185 164.82 177.185 164.609C177.185 164.423 177.222 164.272 177.295 164.157C177.368 164.04 177.466 163.948 177.588 163.882C177.711 163.816 177.846 163.767 177.994 163.734C178.143 163.7 178.293 163.674 178.444 163.654C178.641 163.629 178.801 163.61 178.923 163.597C179.047 163.583 179.137 163.56 179.193 163.527C179.251 163.495 179.28 163.439 179.28 163.358V163.341C179.28 163.133 179.223 162.971 179.109 162.856C178.996 162.74 178.825 162.683 178.596 162.683C178.358 162.683 178.171 162.735 178.036 162.839C177.901 162.943 177.806 163.054 177.751 163.173L177.278 163.004C177.362 162.806 177.475 162.653 177.616 162.543C177.758 162.432 177.913 162.355 178.081 162.311C178.249 162.266 178.416 162.243 178.579 162.243C178.683 162.243 178.803 162.256 178.938 162.281C179.074 162.305 179.206 162.355 179.333 162.431C179.461 162.507 179.567 162.622 179.652 162.775C179.736 162.929 179.778 163.134 179.778 163.392V165.529H179.28V165.09H179.255C179.221 165.16 179.165 165.236 179.086 165.316C179.007 165.396 178.902 165.465 178.771 165.521C178.64 165.577 178.48 165.605 178.292 165.605ZM178.368 165.158C178.565 165.158 178.731 165.119 178.866 165.041C179.003 164.964 179.105 164.864 179.174 164.742C179.245 164.619 179.28 164.49 179.28 164.355V163.899C179.259 163.924 179.212 163.948 179.141 163.969C179.07 163.988 178.989 164.006 178.896 164.021C178.804 164.036 178.715 164.048 178.627 164.059C178.542 164.069 178.472 164.078 178.418 164.085C178.289 164.102 178.168 164.129 178.055 164.167C177.944 164.204 177.854 164.259 177.785 164.334C177.717 164.407 177.683 164.507 177.683 164.634C177.683 164.807 177.748 164.938 177.876 165.027C178.005 165.114 178.169 165.158 178.368 165.158ZM181.153 164.347L181.144 163.73H181.246L182.665 162.286H183.281L181.769 163.815H181.727L181.153 164.347ZM180.688 165.529V161.204H181.186V165.529H180.688ZM182.749 165.529L181.482 163.924L181.837 163.578L183.383 165.529H182.749ZM184.877 165.605C184.672 165.605 184.485 165.567 184.318 165.489C184.15 165.41 184.017 165.297 183.919 165.149C183.82 165 183.771 164.82 183.771 164.609C183.771 164.423 183.807 164.272 183.881 164.157C183.954 164.04 184.052 163.948 184.174 163.882C184.297 163.816 184.432 163.767 184.58 163.734C184.729 163.7 184.879 163.674 185.029 163.654C185.227 163.629 185.386 163.61 185.509 163.597C185.633 163.583 185.723 163.56 185.779 163.527C185.837 163.495 185.866 163.439 185.866 163.358V163.341C185.866 163.133 185.809 162.971 185.695 162.856C185.582 162.74 185.411 162.683 185.181 162.683C184.944 162.683 184.757 162.735 184.622 162.839C184.487 162.943 184.392 163.054 184.337 163.173L183.864 163.004C183.948 162.806 184.061 162.653 184.202 162.543C184.344 162.432 184.499 162.355 184.666 162.311C184.835 162.266 185.001 162.243 185.165 162.243C185.269 162.243 185.388 162.256 185.524 162.281C185.66 162.305 185.792 162.355 185.919 162.431C186.047 162.507 186.153 162.622 186.237 162.775C186.322 162.929 186.364 163.134 186.364 163.392V165.529H185.866V165.09H185.84C185.807 165.16 185.75 165.236 185.671 165.316C185.593 165.396 185.488 165.465 185.357 165.521C185.226 165.577 185.066 165.605 184.877 165.605ZM184.953 165.158C185.151 165.158 185.317 165.119 185.452 165.041C185.588 164.964 185.691 164.864 185.76 164.742C185.831 164.619 185.866 164.49 185.866 164.355V163.899C185.845 163.924 185.798 163.948 185.726 163.969C185.656 163.988 185.574 164.006 185.481 164.021C185.39 164.036 185.3 164.048 185.213 164.059C185.127 164.069 185.058 164.078 185.004 164.085C184.875 164.102 184.753 164.129 184.641 164.167C184.53 164.204 184.44 164.259 184.371 164.334C184.303 164.407 184.269 164.507 184.269 164.634C184.269 164.807 184.333 164.938 184.461 165.027C184.591 165.114 184.755 165.158 184.953 165.158Z" fill="#343434" style="fill:#343434;fill:color(display-p3 0.2038 0.2038 0.2038);fill-opacity:1;"/>
<path d="M197.668 161.204H198.293L199.763 164.794H199.814L201.284 161.204H201.909V165.529H201.419V162.243H201.377L200.025 165.529H199.552L198.2 162.243H198.158V165.529H197.668V161.204ZM203.846 165.605C203.64 165.605 203.454 165.567 203.286 165.489C203.119 165.41 202.986 165.297 202.887 165.149C202.789 165 202.739 164.82 202.739 164.609C202.739 164.423 202.776 164.272 202.849 164.157C202.922 164.04 203.02 163.948 203.143 163.882C203.265 163.816 203.4 163.767 203.548 163.734C203.697 163.7 203.847 163.674 203.998 163.654C204.195 163.629 204.355 163.61 204.477 163.597C204.601 163.583 204.691 163.56 204.748 163.527C204.805 163.495 204.834 163.439 204.834 163.358V163.341C204.834 163.133 204.777 162.971 204.663 162.856C204.55 162.74 204.379 162.683 204.15 162.683C203.912 162.683 203.725 162.735 203.59 162.839C203.455 162.943 203.36 163.054 203.305 163.173L202.832 163.004C202.917 162.806 203.029 162.653 203.17 162.543C203.312 162.432 203.467 162.355 203.635 162.311C203.804 162.266 203.97 162.243 204.133 162.243C204.237 162.243 204.357 162.256 204.492 162.281C204.629 162.305 204.76 162.355 204.887 162.431C205.015 162.507 205.121 162.622 205.206 162.775C205.29 162.929 205.333 163.134 205.333 163.392V165.529H204.834V165.09H204.809C204.775 165.16 204.719 165.236 204.64 165.316C204.561 165.396 204.456 165.465 204.325 165.521C204.194 165.577 204.034 165.605 203.846 165.605ZM203.922 165.158C204.119 165.158 204.285 165.119 204.42 165.041C204.557 164.964 204.66 164.864 204.729 164.742C204.799 164.619 204.834 164.49 204.834 164.355V163.899C204.813 163.924 204.767 163.948 204.695 163.969C204.624 163.988 204.543 164.006 204.45 164.021C204.358 164.036 204.269 164.048 204.182 164.059C204.096 164.069 204.026 164.078 203.973 164.085C203.843 164.102 203.722 164.129 203.609 164.167C203.498 164.204 203.408 164.259 203.339 164.334C203.271 164.407 203.238 164.507 203.238 164.634C203.238 164.807 203.302 164.938 203.43 165.027C203.559 165.114 203.723 165.158 203.922 165.158ZM206.741 163.578V165.529H206.242V161.204H206.741V162.792H206.783C206.859 162.625 206.973 162.492 207.125 162.393C207.278 162.293 207.483 162.243 207.737 162.243C207.958 162.243 208.152 162.288 208.318 162.376C208.484 162.464 208.613 162.598 208.705 162.78C208.798 162.96 208.844 163.189 208.844 163.468V165.529H208.346V163.502C208.346 163.244 208.279 163.045 208.145 162.904C208.013 162.762 207.829 162.691 207.594 162.691C207.43 162.691 207.284 162.726 207.155 162.794C207.026 162.863 206.925 162.964 206.85 163.096C206.777 163.229 206.741 163.389 206.741 163.578ZM210.71 165.605C210.505 165.605 210.318 165.567 210.151 165.489C209.983 165.41 209.85 165.297 209.752 165.149C209.653 165 209.604 164.82 209.604 164.609C209.604 164.423 209.64 164.272 209.714 164.157C209.787 164.04 209.885 163.948 210.007 163.882C210.13 163.816 210.265 163.767 210.413 163.734C210.562 163.7 210.712 163.674 210.862 163.654C211.059 163.629 211.219 163.61 211.342 163.597C211.466 163.583 211.556 163.56 211.612 163.527C211.67 163.495 211.699 163.439 211.699 163.358V163.341C211.699 163.133 211.642 162.971 211.528 162.856C211.415 162.74 211.244 162.683 211.014 162.683C210.776 162.683 210.59 162.735 210.455 162.839C210.32 162.943 210.225 163.054 210.17 163.173L209.697 163.004C209.781 162.806 209.894 162.653 210.035 162.543C210.177 162.432 210.332 162.355 210.499 162.311C210.668 162.266 210.834 162.243 210.997 162.243C211.102 162.243 211.221 162.256 211.357 162.281C211.493 162.305 211.625 162.355 211.751 162.431C211.88 162.507 211.986 162.622 212.07 162.775C212.155 162.929 212.197 163.134 212.197 163.392V165.529H211.699V165.09H211.673C211.639 165.16 211.583 165.236 211.504 165.316C211.425 165.396 211.321 165.465 211.19 165.521C211.059 165.577 210.899 165.605 210.71 165.605ZM210.786 165.158C210.983 165.158 211.15 165.119 211.285 165.041C211.421 164.964 211.524 164.864 211.593 164.742C211.663 164.619 211.699 164.49 211.699 164.355V163.899C211.678 163.924 211.631 163.948 211.559 163.969C211.489 163.988 211.407 164.006 211.314 164.021C211.223 164.036 211.133 164.048 211.046 164.059C210.96 164.069 210.89 164.078 210.837 164.085C210.707 164.102 210.586 164.129 210.474 164.167C210.363 164.204 210.272 164.259 210.203 164.334C210.136 164.407 210.102 164.507 210.102 164.634C210.102 164.807 210.166 164.938 210.294 165.027C210.424 165.114 210.588 165.158 210.786 165.158ZM213.107 165.529V162.286H213.588V162.775H213.622C213.681 162.615 213.788 162.485 213.943 162.385C214.098 162.285 214.272 162.235 214.467 162.235C214.503 162.235 214.549 162.236 214.604 162.237C214.659 162.238 214.7 162.24 214.729 162.243V162.75C214.712 162.746 214.673 162.74 214.612 162.731C214.553 162.721 214.491 162.716 214.424 162.716C214.267 162.716 214.126 162.749 214.002 162.816C213.88 162.88 213.782 162.97 213.711 163.086C213.64 163.2 213.605 163.33 213.605 163.477V165.529H213.107ZM216.274 165.605C216.068 165.605 215.882 165.567 215.714 165.489C215.547 165.41 215.414 165.297 215.315 165.149C215.217 165 215.167 164.82 215.167 164.609C215.167 164.423 215.204 164.272 215.277 164.157C215.35 164.04 215.448 163.948 215.571 163.882C215.693 163.816 215.828 163.767 215.976 163.734C216.125 163.7 216.275 163.674 216.426 163.654C216.623 163.629 216.783 163.61 216.905 163.597C217.029 163.583 217.119 163.56 217.176 163.527C217.233 163.495 217.262 163.439 217.262 163.358V163.341C217.262 163.133 217.205 162.971 217.091 162.856C216.979 162.74 216.807 162.683 216.578 162.683C216.34 162.683 216.153 162.735 216.018 162.839C215.883 162.943 215.788 163.054 215.733 163.173L215.26 163.004C215.345 162.806 215.457 162.653 215.598 162.543C215.74 162.432 215.895 162.355 216.063 162.311C216.232 162.266 216.398 162.243 216.561 162.243C216.665 162.243 216.785 162.256 216.92 162.281C217.057 162.305 217.188 162.355 217.315 162.431C217.443 162.507 217.549 162.622 217.634 162.775C217.718 162.929 217.761 163.134 217.761 163.392V165.529H217.262V165.09H217.237C217.203 165.16 217.147 165.236 217.068 165.316C216.989 165.396 216.884 165.465 216.753 165.521C216.622 165.577 216.463 165.605 216.274 165.605ZM216.35 165.158C216.547 165.158 216.713 165.119 216.848 165.041C216.985 164.964 217.088 164.864 217.157 164.742C217.227 164.619 217.262 164.49 217.262 164.355V163.899C217.241 163.924 217.195 163.948 217.123 163.969C217.052 163.988 216.971 164.006 216.878 164.021C216.786 164.036 216.697 164.048 216.61 164.059C216.524 164.069 216.454 164.078 216.401 164.085C216.271 164.102 216.15 164.129 216.037 164.167C215.926 164.204 215.836 164.259 215.767 164.334C215.699 164.407 215.666 164.507 215.666 164.634C215.666 164.807 215.73 164.938 215.858 165.027C215.987 165.114 216.151 165.158 216.35 165.158ZM220.968 163.012L220.52 163.139C220.492 163.064 220.451 162.992 220.396 162.921C220.342 162.849 220.269 162.79 220.176 162.744C220.083 162.697 219.964 162.674 219.819 162.674C219.621 162.674 219.455 162.72 219.323 162.811C219.192 162.901 219.126 163.016 219.126 163.156C219.126 163.28 219.171 163.377 219.262 163.449C219.352 163.521 219.492 163.581 219.684 163.629L220.165 163.747C220.455 163.817 220.672 163.925 220.814 164.07C220.956 164.214 221.027 164.399 221.027 164.625C221.027 164.811 220.974 164.977 220.867 165.124C220.761 165.27 220.613 165.386 220.423 165.47C220.233 165.555 220.012 165.597 219.76 165.597C219.429 165.597 219.155 165.525 218.938 165.381C218.722 165.238 218.584 165.028 218.527 164.752L219 164.634C219.045 164.808 219.13 164.939 219.255 165.027C219.382 165.114 219.547 165.158 219.752 165.158C219.984 165.158 220.168 165.108 220.305 165.01C220.443 164.91 220.512 164.79 220.512 164.651C220.512 164.538 220.472 164.444 220.393 164.368C220.315 164.29 220.194 164.233 220.03 164.195L219.49 164.068C219.193 163.998 218.974 163.888 218.835 163.741C218.697 163.591 218.628 163.405 218.628 163.181C218.628 162.998 218.679 162.836 218.782 162.695C218.886 162.554 219.028 162.444 219.207 162.364C219.387 162.283 219.591 162.243 219.819 162.243C220.14 162.243 220.392 162.314 220.575 162.454C220.76 162.595 220.89 162.781 220.968 163.012ZM222.276 163.578V165.529H221.777V161.204H222.276V162.792H222.318C222.394 162.625 222.508 162.492 222.66 162.393C222.813 162.293 223.018 162.243 223.272 162.243C223.493 162.243 223.687 162.288 223.853 162.376C224.019 162.464 224.148 162.598 224.24 162.78C224.333 162.96 224.379 163.189 224.379 163.468V165.529H223.881V163.502C223.881 163.244 223.814 163.045 223.68 162.904C223.548 162.762 223.364 162.691 223.129 162.691C222.966 162.691 222.819 162.726 222.69 162.794C222.561 162.863 222.46 162.964 222.385 163.096C222.312 163.229 222.276 163.389 222.276 163.578ZM226.701 162.286V162.708H225.02V162.286H226.701ZM225.51 161.508H226.009V164.6C226.009 164.741 226.029 164.846 226.07 164.917C226.112 164.986 226.166 165.032 226.231 165.056C226.297 165.079 226.366 165.09 226.44 165.09C226.495 165.09 226.54 165.087 226.575 165.082C226.61 165.075 226.638 165.069 226.659 165.065L226.761 165.512C226.727 165.525 226.68 165.538 226.619 165.55C226.559 165.564 226.482 165.572 226.389 165.572C226.248 165.572 226.11 165.541 225.975 165.481C225.841 165.42 225.73 165.328 225.641 165.204C225.554 165.08 225.51 164.924 225.51 164.735V161.508ZM227.451 165.529V162.286H227.933V162.775H227.966C228.026 162.615 228.133 162.485 228.287 162.385C228.442 162.285 228.617 162.235 228.811 162.235C228.848 162.235 228.894 162.236 228.948 162.237C229.003 162.238 229.045 162.24 229.073 162.243V162.75C229.056 162.746 229.017 162.74 228.957 162.731C228.898 162.721 228.835 162.716 228.769 162.716C228.611 162.716 228.47 162.749 228.347 162.816C228.224 162.88 228.127 162.97 228.055 163.086C227.985 163.2 227.95 163.33 227.95 163.477V165.529H227.451ZM230.618 165.605C230.413 165.605 230.226 165.567 230.059 165.489C229.891 165.41 229.758 165.297 229.66 165.149C229.561 165 229.512 164.82 229.512 164.609C229.512 164.423 229.548 164.272 229.622 164.157C229.695 164.04 229.793 163.948 229.915 163.882C230.038 163.816 230.173 163.767 230.321 163.734C230.47 163.7 230.62 163.674 230.77 163.654C230.968 163.629 231.127 163.61 231.25 163.597C231.374 163.583 231.464 163.56 231.52 163.527C231.578 163.495 231.607 163.439 231.607 163.358V163.341C231.607 163.133 231.55 162.971 231.436 162.856C231.323 162.74 231.152 162.683 230.922 162.683C230.685 162.683 230.498 162.735 230.363 162.839C230.228 162.943 230.133 163.054 230.078 163.173L229.605 163.004C229.689 162.806 229.802 162.653 229.943 162.543C230.085 162.432 230.24 162.355 230.407 162.311C230.576 162.266 230.742 162.243 230.906 162.243C231.01 162.243 231.129 162.256 231.265 162.281C231.401 162.305 231.533 162.355 231.66 162.431C231.788 162.507 231.894 162.622 231.978 162.775C232.063 162.929 232.105 163.134 232.105 163.392V165.529H231.607V165.09H231.581C231.548 165.16 231.491 165.236 231.412 165.316C231.334 165.396 231.229 165.465 231.098 165.521C230.967 165.577 230.807 165.605 230.618 165.605ZM230.694 165.158C230.892 165.158 231.058 165.119 231.193 165.041C231.329 164.964 231.432 164.864 231.501 164.742C231.572 164.619 231.607 164.49 231.607 164.355V163.899C231.586 163.924 231.539 163.948 231.467 163.969C231.397 163.988 231.315 164.006 231.222 164.021C231.131 164.036 231.041 164.048 230.954 164.059C230.868 164.069 230.799 164.078 230.745 164.085C230.616 164.102 230.494 164.129 230.382 164.167C230.271 164.204 230.181 164.259 230.112 164.334C230.044 164.407 230.01 164.507 230.01 164.634C230.01 164.807 230.074 164.938 230.202 165.027C230.332 165.114 230.496 165.158 230.694 165.158Z" fill="#343434" style="fill:#343434;fill:color(display-p3 0.2038 0.2038 0.2038);fill-opacity:1;"/>
<path d="M43.8113 29.5762C43.5213 29.5762 43.2651 29.5248 43.0426 29.4221C42.8216 29.3179 42.6491 29.175 42.5252 28.9934C42.4014 28.8103 42.3401 28.602 42.3415 28.3683C42.3401 28.1852 42.376 28.0163 42.4492 27.8614C42.5224 27.7052 42.6224 27.5749 42.7491 27.4707C42.8772 27.3651 43.0201 27.2983 43.1778 27.2701V27.2448C42.9708 27.1913 42.8061 27.0751 42.6836 26.8963C42.5611 26.7161 42.5006 26.5113 42.502 26.2818C42.5006 26.0622 42.5562 25.8658 42.6688 25.6926C42.7815 25.5194 42.9363 25.3829 43.1334 25.2829C43.332 25.1829 43.5579 25.133 43.8113 25.133C44.0619 25.133 44.2858 25.1829 44.4829 25.2829C44.68 25.3829 44.8349 25.5194 44.9475 25.6926C45.0615 25.8658 45.1193 26.0622 45.1207 26.2818C45.1193 26.5113 45.0566 26.7161 44.9327 26.8963C44.8102 27.0751 44.6476 27.1913 44.4449 27.2448V27.2701C44.6012 27.2983 44.7419 27.3651 44.8673 27.4707C44.9926 27.5749 45.0925 27.7052 45.1671 27.8614C45.2417 28.0163 45.2798 28.1852 45.2812 28.3683C45.2798 28.602 45.2164 28.8103 45.0911 28.9934C44.9672 29.175 44.7947 29.3179 44.5737 29.4221C44.3541 29.5248 44.1 29.5762 43.8113 29.5762ZM43.8113 29.1116C44.007 29.1116 44.176 29.0799 44.3182 29.0166C44.4604 28.9532 44.5702 28.8638 44.6476 28.7484C44.7251 28.6329 44.7645 28.4978 44.7659 28.3429C44.7645 28.1796 44.7222 28.0353 44.6392 27.91C44.5561 27.7847 44.4428 27.6861 44.2992 27.6143C44.157 27.5425 43.9944 27.5066 43.8113 27.5066C43.6269 27.5066 43.4622 27.5425 43.3172 27.6143C43.1736 27.6861 43.0602 27.7847 42.9772 27.91C42.8955 28.0353 42.8554 28.1796 42.8568 28.3429C42.8554 28.4978 42.8927 28.6329 42.9687 28.7484C43.0462 28.8638 43.1567 28.9532 43.3003 29.0166C43.4439 29.0799 43.6142 29.1116 43.8113 29.1116ZM43.8113 27.0589C43.9662 27.0589 44.1035 27.028 44.2231 26.966C44.3442 26.9041 44.4393 26.8175 44.5082 26.7063C44.5772 26.595 44.6124 26.4648 44.6138 26.3156C44.6124 26.1692 44.5779 26.0417 44.5104 25.9333C44.4428 25.8235 44.3492 25.739 44.2295 25.6799C44.1098 25.6194 43.9704 25.5891 43.8113 25.5891C43.6494 25.5891 43.5079 25.6194 43.3869 25.6799C43.2658 25.739 43.1722 25.8235 43.106 25.9333C43.0398 26.0417 43.0074 26.1692 43.0089 26.3156C43.0074 26.4648 43.0405 26.595 43.1081 26.7063C43.1771 26.8175 43.2721 26.9041 43.3932 26.966C43.5143 27.028 43.6537 27.0589 43.8113 27.0589ZM46.3286 29.5509C46.2244 29.5509 46.135 29.5136 46.0604 29.439C45.9858 29.3643 45.9485 29.2749 45.9485 29.1708C45.9485 29.0666 45.9858 28.9772 46.0604 28.9026C46.135 28.8279 46.2244 28.7906 46.3286 28.7906C46.4328 28.7906 46.5222 28.8279 46.5968 28.9026C46.6714 28.9772 46.7088 29.0666 46.7088 29.1708C46.7088 29.2397 46.6912 29.3031 46.656 29.3608C46.6222 29.4185 46.5764 29.465 46.5187 29.5002C46.4624 29.534 46.399 29.5509 46.3286 29.5509ZM48.8464 29.5762C48.5564 29.5762 48.3002 29.5248 48.0777 29.4221C47.8567 29.3179 47.6842 29.175 47.5603 28.9934C47.4365 28.8103 47.3752 28.602 47.3766 28.3683C47.3752 28.1852 47.4111 28.0163 47.4843 27.8614C47.5575 27.7052 47.6575 27.5749 47.7842 27.4707C47.9123 27.3651 48.0552 27.2983 48.2129 27.2701V27.2448C48.0059 27.1913 47.8412 27.0751 47.7187 26.8963C47.5962 26.7161 47.5357 26.5113 47.5371 26.2818C47.5357 26.0622 47.5913 25.8658 47.7039 25.6926C47.8166 25.5194 47.9714 25.3829 48.1685 25.2829C48.3671 25.1829 48.593 25.133 48.8464 25.133C49.097 25.133 49.3209 25.1829 49.518 25.2829C49.7151 25.3829 49.87 25.5194 49.9826 25.6926C50.0966 25.8658 50.1544 26.0622 50.1558 26.2818C50.1544 26.5113 50.0917 26.7161 49.9678 26.8963C49.8453 27.0751 49.6827 27.1913 49.48 27.2448V27.2701C49.6363 27.2983 49.777 27.3651 49.9023 27.4707C50.0277 27.5749 50.1276 27.7052 50.2022 27.8614C50.2768 28.0163 50.3149 28.1852 50.3163 28.3683C50.3149 28.602 50.2515 28.8103 50.1262 28.9934C50.0023 29.175 49.8298 29.3179 49.6088 29.4221C49.3892 29.5248 49.1351 29.5762 48.8464 29.5762ZM48.8464 29.1116C49.0421 29.1116 49.2111 29.0799 49.3533 29.0166C49.4955 28.9532 49.6053 28.8638 49.6827 28.7484C49.7602 28.6329 49.7996 28.4978 49.801 28.3429C49.7996 28.1796 49.7573 28.0353 49.6743 27.91C49.5912 27.7847 49.4779 27.6861 49.3343 27.6143C49.1921 27.5425 49.0295 27.5066 48.8464 27.5066C48.662 27.5066 48.4973 27.5425 48.3523 27.6143C48.2087 27.6861 48.0953 27.7847 48.0123 27.91C47.9306 28.0353 47.8905 28.1796 47.8919 28.3429C47.8905 28.4978 47.9278 28.6329 48.0038 28.7484C48.0813 28.8638 48.1918 28.9532 48.3354 29.0166C48.479 29.0799 48.6493 29.1116 48.8464 29.1116ZM48.8464 27.0589C49.0013 27.0589 49.1386 27.028 49.2582 26.966C49.3793 26.9041 49.4744 26.8175 49.5433 26.7063C49.6123 26.595 49.6475 26.4648 49.6489 26.3156C49.6475 26.1692 49.613 26.0417 49.5455 25.9333C49.4779 25.8235 49.3843 25.739 49.2646 25.6799C49.1449 25.6194 49.0055 25.5891 48.8464 25.5891C48.6845 25.5891 48.543 25.6194 48.422 25.6799C48.3009 25.739 48.2073 25.8235 48.1411 25.9333C48.0749 26.0417 48.0425 26.1692 48.044 26.3156C48.0425 26.4648 48.0756 26.595 48.1432 26.7063C48.2122 26.8175 48.3072 26.9041 48.4283 26.966C48.5494 27.028 48.6888 27.0589 48.8464 27.0589ZM52.5025 25.133C52.6799 25.1344 52.8573 25.1682 53.0347 25.2343C53.2121 25.3005 53.374 25.4103 53.5204 25.5638C53.6668 25.7158 53.7844 25.9235 53.8731 26.1868C53.9618 26.45 54.0061 26.7802 54.0061 27.1772C54.0061 27.5615 53.9695 27.903 53.8963 28.2014C53.8245 28.4985 53.7203 28.7491 53.5838 28.9532C53.4486 29.1574 53.2839 29.3122 53.0896 29.4178C52.8967 29.5234 52.6785 29.5762 52.4349 29.5762C52.1928 29.5762 51.9767 29.5284 51.7866 29.4326C51.598 29.3355 51.4431 29.201 51.322 29.0293C51.2023 28.8561 51.1256 28.6555 51.0918 28.4274H51.6071C51.6536 28.6259 51.7458 28.7899 51.8838 28.9194C52.0231 29.0476 52.2069 29.1116 52.4349 29.1116C52.7686 29.1116 53.0319 28.9659 53.2248 28.6745C53.4191 28.383 53.5162 27.9712 53.5162 27.4391H53.4824C53.4036 27.5573 53.3099 27.6594 53.2015 27.7453C53.0931 27.8312 52.9728 27.8973 52.8404 27.9438C52.7081 27.9902 52.5673 28.0135 52.4181 28.0135C52.1703 28.0135 51.9429 27.9522 51.7359 27.8297C51.5304 27.7059 51.3657 27.5362 51.2418 27.3208C51.1193 27.104 51.058 26.8562 51.058 26.5774C51.058 26.3128 51.1172 26.0706 51.2354 25.851C51.3551 25.6299 51.5226 25.454 51.738 25.323C51.9549 25.1921 52.2097 25.1287 52.5025 25.133ZM52.5025 25.5976C52.3251 25.5976 52.1653 25.6419 52.0231 25.7306C51.8824 25.8179 51.7704 25.9362 51.6874 26.0854C51.6057 26.2332 51.5649 26.3972 51.5649 26.5774C51.5649 26.7576 51.6043 26.9217 51.6831 27.0695C51.7634 27.2159 51.8725 27.3328 52.0105 27.4201C52.1498 27.5059 52.3082 27.5489 52.4856 27.5489C52.6194 27.5489 52.744 27.5228 52.8594 27.4707C52.9749 27.4172 53.0755 27.3447 53.1614 27.2532C53.2487 27.1603 53.317 27.0554 53.3663 26.9386C53.4155 26.8203 53.4402 26.6971 53.4402 26.569C53.4402 26.4 53.3993 26.2417 53.3177 26.0938C53.2374 25.946 53.1262 25.8263 52.984 25.7348C52.8432 25.6433 52.6827 25.5976 52.5025 25.5976Z" fill="#343434" style="fill:#343434;fill:color(display-p3 0.2038 0.2038 0.2038);fill-opacity:1;"/>
<path d="M85.555 100.437C85.2762 100.437 85.0277 100.389 84.8095 100.293C84.5927 100.197 84.4202 100.064 84.2921 99.8938C84.1654 99.7221 84.0964 99.5229 84.0852 99.2962H84.6173C84.6286 99.4356 84.6765 99.5559 84.7609 99.6573C84.8454 99.7573 84.9559 99.8347 85.0925 99.8896C85.2291 99.9445 85.3804 99.972 85.5465 99.972C85.7324 99.972 85.8971 99.9396 86.0407 99.8748C86.1843 99.8101 86.2969 99.72 86.3786 99.6045C86.4603 99.4891 86.5011 99.3553 86.5011 99.2033C86.5011 99.0442 86.4617 98.9041 86.3828 98.783C86.304 98.6605 86.1885 98.5648 86.0365 98.4958C85.8844 98.4268 85.6986 98.3923 85.479 98.3923H85.1326V97.9277H85.479C85.6507 97.9277 85.8014 97.8968 85.9309 97.8348C86.0618 97.7729 86.1639 97.6856 86.2371 97.5729C86.3117 97.4603 86.349 97.328 86.349 97.1759C86.349 97.0295 86.3167 96.9021 86.2519 96.7937C86.1871 96.6853 86.0956 96.6008 85.9774 96.5403C85.8605 96.4797 85.7225 96.4495 85.5634 96.4495C85.4142 96.4495 85.2734 96.4769 85.1411 96.5318C85.0101 96.5853 84.9031 96.6635 84.8201 96.7662C84.737 96.8676 84.692 96.9901 84.6849 97.1337H84.1781C84.1865 96.907 84.2548 96.7085 84.3829 96.5382C84.511 96.3664 84.6786 96.2326 84.8855 96.1369C85.0939 96.0412 85.3227 95.9933 85.5719 95.9933C85.8394 95.9933 86.0689 96.0475 86.2603 96.1559C86.4518 96.2629 86.5989 96.4044 86.7017 96.5804C86.8045 96.7564 86.8559 96.9464 86.8559 97.1506C86.8559 97.3941 86.7918 97.6018 86.6637 97.7736C86.537 97.9453 86.3645 98.0643 86.1463 98.1305V98.1643C86.4194 98.2093 86.6327 98.3255 86.7862 98.5127C86.9396 98.6985 87.0164 98.9287 87.0164 99.2033C87.0164 99.4384 86.9523 99.6496 86.8242 99.8368C86.6975 100.023 86.5243 100.169 86.3047 100.276C86.0851 100.383 85.8352 100.437 85.555 100.437ZM88.1182 100.411C88.014 100.411 87.9246 100.374 87.85 100.299C87.7754 100.225 87.7381 100.135 87.7381 100.031C87.7381 99.9269 87.7754 99.8375 87.85 99.7629C87.9246 99.6883 88.014 99.651 88.1182 99.651C88.2224 99.651 88.3118 99.6883 88.3864 99.7629C88.461 99.8375 88.4983 99.9269 88.4983 100.031C88.4983 100.1 88.4807 100.163 88.4455 100.221C88.4117 100.279 88.366 100.325 88.3083 100.361C88.252 100.394 88.1886 100.411 88.1182 100.411ZM89.4323 100.377L91.3667 96.5508V96.517H89.1366V96.0524H91.9073V96.5424L89.9814 100.377H89.4323ZM92.9458 100.377L94.8802 96.5508V96.517H92.6502V96.0524H95.4209V96.5424L93.4949 100.377H92.9458Z" fill="#343434" style="fill:#343434;fill:color(display-p3 0.2038 0.2038 0.2038);fill-opacity:1;"/>
<path d="M126.558 103.758C126.279 103.758 126.031 103.71 125.813 103.615C125.596 103.519 125.423 103.386 125.295 103.216C125.169 103.044 125.1 102.845 125.088 102.618H125.621C125.632 102.757 125.68 102.878 125.764 102.979C125.849 103.079 125.959 103.156 126.096 103.211C126.232 103.266 126.384 103.294 126.55 103.294C126.736 103.294 126.9 103.261 127.044 103.197C127.187 103.132 127.3 103.042 127.382 102.926C127.463 102.811 127.504 102.677 127.504 102.525C127.504 102.366 127.465 102.226 127.386 102.105C127.307 101.982 127.192 101.887 127.04 101.818C126.888 101.749 126.702 101.714 126.482 101.714H126.136V101.25H126.482C126.654 101.25 126.805 101.219 126.934 101.157C127.065 101.095 127.167 101.007 127.24 100.895C127.315 100.782 127.352 100.65 127.352 100.498C127.352 100.351 127.32 100.224 127.255 100.115C127.19 100.007 127.099 99.9226 126.981 99.862C126.864 99.8015 126.726 99.7712 126.567 99.7712C126.417 99.7712 126.277 99.7987 126.144 99.8536C126.013 99.9071 125.906 99.9852 125.823 100.088C125.74 100.189 125.695 100.312 125.688 100.455H125.181C125.19 100.229 125.258 100.03 125.386 99.8599C125.514 99.6882 125.682 99.5544 125.889 99.4587C126.097 99.363 126.326 99.3151 126.575 99.3151C126.843 99.3151 127.072 99.3693 127.264 99.4777C127.455 99.5847 127.602 99.7262 127.705 99.9022C127.808 100.078 127.859 100.268 127.859 100.472C127.859 100.716 127.795 100.924 127.667 101.095C127.54 101.267 127.368 101.386 127.149 101.452V101.486C127.423 101.531 127.636 101.647 127.789 101.834C127.943 102.02 128.02 102.251 128.02 102.525C128.02 102.76 127.955 102.971 127.827 103.159C127.701 103.344 127.527 103.491 127.308 103.598C127.088 103.705 126.838 103.758 126.558 103.758ZM129.121 103.733C129.017 103.733 128.928 103.696 128.853 103.621C128.779 103.546 128.741 103.457 128.741 103.353C128.741 103.249 128.779 103.159 128.853 103.085C128.928 103.01 129.017 102.973 129.121 102.973C129.226 102.973 129.315 103.01 129.39 103.085C129.464 103.159 129.502 103.249 129.502 103.353C129.502 103.422 129.484 103.485 129.449 103.543C129.415 103.601 129.369 103.647 129.311 103.682C129.255 103.716 129.192 103.733 129.121 103.733ZM131.652 103.758C131.404 103.758 131.181 103.709 130.982 103.611C130.784 103.512 130.625 103.377 130.505 103.205C130.385 103.033 130.32 102.838 130.309 102.618H130.816C130.835 102.814 130.924 102.976 131.082 103.104C131.241 103.23 131.431 103.294 131.652 103.294C131.829 103.294 131.987 103.252 132.125 103.169C132.264 103.086 132.373 102.972 132.452 102.827C132.532 102.681 132.573 102.515 132.573 102.331C132.573 102.142 132.531 101.974 132.448 101.826C132.366 101.677 132.254 101.559 132.11 101.473C131.967 101.387 131.803 101.344 131.618 101.342C131.486 101.341 131.35 101.361 131.211 101.404C131.071 101.445 130.956 101.497 130.866 101.562L130.376 101.503L130.638 99.3742H132.885V99.8388H131.077L130.925 101.114H130.951C131.039 101.044 131.151 100.986 131.284 100.939C131.418 100.893 131.558 100.869 131.703 100.869C131.967 100.869 132.203 100.933 132.41 101.059C132.618 101.185 132.782 101.357 132.9 101.575C133.02 101.793 133.079 102.042 133.079 102.322C133.079 102.598 133.018 102.845 132.894 103.061C132.771 103.277 132.602 103.447 132.387 103.573C132.171 103.696 131.926 103.758 131.652 103.758ZM135.38 103.758C135.101 103.758 134.853 103.71 134.634 103.615C134.417 103.519 134.245 103.386 134.117 103.216C133.99 103.044 133.921 102.845 133.91 102.618H134.442C134.453 102.757 134.501 102.878 134.586 102.979C134.67 103.079 134.781 103.156 134.917 103.211C135.054 103.266 135.205 103.294 135.371 103.294C135.557 103.294 135.722 103.261 135.865 103.197C136.009 103.132 136.122 103.042 136.203 102.926C136.285 102.811 136.326 102.677 136.326 102.525C136.326 102.366 136.286 102.226 136.208 102.105C136.129 101.982 136.013 101.887 135.861 101.818C135.709 101.749 135.523 101.714 135.304 101.714H134.957V101.25H135.304C135.475 101.25 135.626 101.219 135.756 101.157C135.887 101.095 135.989 101.007 136.062 100.895C136.136 100.782 136.174 100.65 136.174 100.498C136.174 100.351 136.141 100.224 136.077 100.115C136.012 100.007 135.92 99.9226 135.802 99.862C135.685 99.8015 135.547 99.7712 135.388 99.7712C135.239 99.7712 135.098 99.7987 134.966 99.8536C134.835 99.9071 134.728 99.9852 134.645 100.088C134.562 100.189 134.517 100.312 134.51 100.455H134.003C134.011 100.229 134.08 100.03 134.208 99.8599C134.336 99.6882 134.503 99.5544 134.71 99.4587C134.919 99.363 135.147 99.3151 135.397 99.3151C135.664 99.3151 135.894 99.3693 136.085 99.4777C136.277 99.5847 136.424 99.7262 136.526 99.9022C136.629 100.078 136.681 100.268 136.681 100.472C136.681 100.716 136.617 100.924 136.488 101.095C136.362 101.267 136.189 101.386 135.971 101.452V101.486C136.244 101.531 136.457 101.647 136.611 101.834C136.764 102.02 136.841 102.251 136.841 102.525C136.841 102.76 136.777 102.971 136.649 103.159C136.522 103.344 136.349 103.491 136.129 103.598C135.91 103.705 135.66 103.758 135.38 103.758Z" fill="#343434" style="fill:#343434;fill:color(display-p3 0.2038 0.2038 0.2038);fill-opacity:1;"/>
<path d="M167.072 114.771V114.391L168.499 112.828C168.667 112.645 168.805 112.486 168.913 112.351C169.022 112.214 169.102 112.086 169.154 111.967C169.207 111.845 169.234 111.719 169.234 111.586C169.234 111.434 169.198 111.303 169.124 111.191C169.053 111.08 168.954 110.994 168.829 110.934C168.703 110.873 168.563 110.843 168.406 110.843C168.24 110.843 168.095 110.878 167.971 110.946C167.849 111.014 167.754 111.109 167.686 111.232C167.62 111.354 167.587 111.498 167.587 111.662H167.089C167.089 111.409 167.147 111.187 167.264 110.995C167.381 110.804 167.54 110.654 167.741 110.547C167.944 110.44 168.171 110.387 168.423 110.387C168.677 110.387 168.901 110.44 169.097 110.547C169.293 110.654 169.446 110.799 169.557 110.98C169.669 111.162 169.724 111.364 169.724 111.586C169.724 111.745 169.695 111.901 169.638 112.053C169.581 112.204 169.483 112.372 169.342 112.558C169.203 112.742 169.009 112.968 168.761 113.234L167.79 114.273V114.306H169.8V114.771H167.072ZM171.044 114.805C170.94 114.805 170.85 114.767 170.776 114.693C170.701 114.618 170.664 114.529 170.664 114.425C170.664 114.32 170.701 114.231 170.776 114.156C170.85 114.082 170.94 114.045 171.044 114.045C171.148 114.045 171.238 114.082 171.312 114.156C171.387 114.231 171.424 114.32 171.424 114.425C171.424 114.494 171.407 114.557 171.371 114.615C171.338 114.672 171.292 114.719 171.234 114.754C171.178 114.788 171.114 114.805 171.044 114.805ZM172.358 114.771L174.293 110.944V110.911H172.062V110.446H174.833V110.936L172.907 114.771H172.358ZM176.983 114.83C176.704 114.83 176.456 114.782 176.238 114.687C176.021 114.591 175.848 114.458 175.72 114.287C175.593 114.116 175.524 113.916 175.513 113.69H176.045C176.057 113.829 176.104 113.949 176.189 114.051C176.273 114.151 176.384 114.228 176.52 114.283C176.657 114.338 176.808 114.366 176.975 114.366C177.16 114.366 177.325 114.333 177.469 114.268C177.612 114.204 177.725 114.114 177.807 113.998C177.888 113.883 177.929 113.749 177.929 113.597C177.929 113.438 177.89 113.298 177.811 113.177C177.732 113.054 177.617 112.958 177.464 112.889C177.312 112.82 177.127 112.786 176.907 112.786H176.561V112.321H176.907C177.079 112.321 177.229 112.29 177.359 112.228C177.49 112.166 177.592 112.079 177.665 111.967C177.74 111.854 177.777 111.722 177.777 111.569C177.777 111.423 177.745 111.296 177.68 111.187C177.615 111.079 177.524 110.994 177.405 110.934C177.288 110.873 177.151 110.843 176.991 110.843C176.842 110.843 176.701 110.87 176.569 110.925C176.438 110.979 176.331 111.057 176.248 111.16C176.165 111.261 176.12 111.384 176.113 111.527H175.606C175.615 111.301 175.683 111.102 175.811 110.932C175.939 110.76 176.107 110.626 176.314 110.53C176.522 110.435 176.751 110.387 177 110.387C177.267 110.387 177.497 110.441 177.688 110.549C177.88 110.656 178.027 110.798 178.13 110.974C178.232 111.15 178.284 111.34 178.284 111.544C178.284 111.788 178.22 111.995 178.092 112.167C177.965 112.339 177.793 112.458 177.574 112.524V112.558C177.847 112.603 178.061 112.719 178.214 112.906C178.368 113.092 178.444 113.322 178.444 113.597C178.444 113.832 178.38 114.043 178.252 114.23C178.125 114.416 177.952 114.563 177.733 114.67C177.513 114.777 177.263 114.83 176.983 114.83Z" fill="#343434" style="fill:#343434;fill:color(display-p3 0.2038 0.2038 0.2038);fill-opacity:1;"/>
<path d="M208.188 120.999V120.619L209.616 119.056C209.783 118.873 209.921 118.714 210.03 118.579C210.138 118.442 210.218 118.314 210.27 118.195C210.324 118.073 210.351 117.947 210.351 117.814C210.351 117.662 210.314 117.531 210.241 117.419C210.169 117.308 210.07 117.222 209.945 117.162C209.82 117.101 209.679 117.071 209.523 117.071C209.357 117.071 209.212 117.106 209.088 117.175C208.965 117.242 208.87 117.337 208.803 117.46C208.736 117.582 208.703 117.726 208.703 117.89H208.205C208.205 117.637 208.263 117.415 208.38 117.223C208.497 117.032 208.656 116.882 208.858 116.775C209.06 116.668 209.288 116.615 209.54 116.615C209.793 116.615 210.018 116.668 210.213 116.775C210.409 116.882 210.563 117.027 210.674 117.208C210.785 117.39 210.841 117.592 210.841 117.814C210.841 117.973 210.812 118.129 210.754 118.281C210.698 118.432 210.599 118.6 210.458 118.786C210.319 118.97 210.125 119.196 209.878 119.462L208.906 120.501V120.534H210.917V120.999H208.188ZM212.16 121.033C212.056 121.033 211.967 120.996 211.892 120.921C211.818 120.846 211.78 120.757 211.78 120.653C211.78 120.549 211.818 120.459 211.892 120.384C211.967 120.31 212.056 120.273 212.16 120.273C212.265 120.273 212.354 120.31 212.429 120.384C212.503 120.459 212.541 120.549 212.541 120.653C212.541 120.722 212.523 120.785 212.488 120.843C212.454 120.9 212.408 120.947 212.351 120.982C212.294 121.016 212.231 121.033 212.16 121.033ZM213.426 120.999V120.619L214.854 119.056C215.022 118.873 215.16 118.714 215.268 118.579C215.376 118.442 215.457 118.314 215.509 118.195C215.562 118.073 215.589 117.947 215.589 117.814C215.589 117.662 215.552 117.531 215.479 117.419C215.407 117.308 215.309 117.222 215.184 117.162C215.058 117.101 214.917 117.071 214.761 117.071C214.595 117.071 214.45 117.106 214.326 117.175C214.204 117.242 214.109 117.337 214.041 117.46C213.975 117.582 213.942 117.726 213.942 117.89H213.443C213.443 117.637 213.502 117.415 213.619 117.223C213.736 117.032 213.895 116.882 214.096 116.775C214.299 116.668 214.526 116.615 214.778 116.615C215.031 116.615 215.256 116.668 215.452 116.775C215.647 116.882 215.801 117.027 215.912 117.208C216.023 117.39 216.079 117.592 216.079 117.814C216.079 117.973 216.05 118.129 215.992 118.281C215.936 118.432 215.837 118.6 215.697 118.786C215.557 118.97 215.364 119.196 215.116 119.462L214.145 120.501V120.534H216.155V120.999H213.426ZM218.412 121.058C218.122 121.058 217.866 121.007 217.644 120.904C217.423 120.8 217.25 120.657 217.126 120.475C217.002 120.292 216.941 120.084 216.943 119.85C216.941 119.667 216.977 119.498 217.05 119.343C217.124 119.187 217.224 119.057 217.35 118.953C217.478 118.847 217.621 118.78 217.779 118.752V118.727C217.572 118.673 217.407 118.557 217.285 118.378C217.162 118.198 217.102 117.993 217.103 117.764C217.102 117.544 217.157 117.348 217.27 117.175C217.383 117.001 217.537 116.865 217.735 116.765C217.933 116.665 218.159 116.615 218.412 116.615C218.663 116.615 218.887 116.665 219.084 116.765C219.281 116.865 219.436 117.001 219.549 117.175C219.663 117.348 219.72 117.544 219.722 117.764C219.72 117.993 219.658 118.198 219.534 118.378C219.411 118.557 219.249 118.673 219.046 118.727V118.752C219.202 118.78 219.343 118.847 219.468 118.953C219.594 119.057 219.694 119.187 219.768 119.343C219.843 119.498 219.881 119.667 219.882 119.85C219.881 120.084 219.818 120.292 219.692 120.475C219.568 120.657 219.396 120.8 219.175 120.904C218.955 121.007 218.701 121.058 218.412 121.058ZM218.412 120.594C218.608 120.594 218.777 120.562 218.919 120.499C219.062 120.435 219.171 120.346 219.249 120.23C219.326 120.115 219.366 119.98 219.367 119.825C219.366 119.662 219.323 119.517 219.24 119.392C219.157 119.267 219.044 119.168 218.9 119.096C218.758 119.024 218.596 118.989 218.412 118.989C218.228 118.989 218.063 119.024 217.918 119.096C217.775 119.168 217.661 119.267 217.578 119.392C217.497 119.517 217.457 119.662 217.458 119.825C217.457 119.98 217.494 120.115 217.57 120.23C217.647 120.346 217.758 120.435 217.901 120.499C218.045 120.562 218.215 120.594 218.412 120.594ZM218.412 118.541C218.567 118.541 218.705 118.51 218.824 118.448C218.945 118.386 219.04 118.299 219.109 118.188C219.178 118.077 219.214 117.947 219.215 117.798C219.214 117.651 219.179 117.524 219.111 117.415C219.044 117.305 218.95 117.221 218.831 117.162C218.711 117.101 218.572 117.071 218.412 117.071C218.251 117.071 218.109 117.101 217.988 117.162C217.867 117.221 217.773 117.305 217.707 117.415C217.641 117.524 217.609 117.651 217.61 117.798C217.609 117.947 217.642 118.077 217.709 118.188C217.778 118.299 217.873 118.386 217.994 118.448C218.115 118.51 218.255 118.541 218.412 118.541Z" fill="#343434" style="fill:#343434;fill:color(display-p3 0.2038 0.2038 0.2038);fill-opacity:1;"/>
<path d="M27.1406 155.97H234.741" stroke="#838897" style="stroke:#838897;stroke:color(display-p3 0.5137 0.5333 0.5922);stroke-opacity:1;" stroke-width="0.540625" stroke-dasharray="2.16 1.08"/>
<path d="M27.1406 128.398H234.741" stroke="#838897" style="stroke:#838897;stroke:color(display-p3 0.5137 0.5333 0.5922);stroke-opacity:1;" stroke-width="0.540625" stroke-dasharray="2.16 1.08"/>
<path d="M27.1406 100.286H234.741" stroke="#838897" style="stroke:#838897;stroke:color(display-p3 0.5137 0.5333 0.5922);stroke-opacity:1;" stroke-width="0.540625" stroke-dasharray="2.16 1.08"/>
<path d="M27.1406 72.7139H234.741" stroke="#838897" style="stroke:#838897;stroke:color(display-p3 0.5137 0.5333 0.5922);stroke-opacity:1;" stroke-width="0.540625" stroke-dasharray="2.16 1.08"/>
<path d="M27.1406 45.1421H234.741" stroke="#838897" style="stroke:#838897;stroke:color(display-p3 0.5137 0.5333 0.5922);stroke-opacity:1;" stroke-width="0.540625" stroke-dasharray="2.16 1.08"/>
<path d="M27.1406 17.5703H234.741" stroke="#838897" style="stroke:#838897;stroke:color(display-p3 0.5137 0.5333 0.5922);stroke-opacity:1;" stroke-width="0.540625" stroke-dasharray="2.16 1.08"/>
<path d="M37.9555 32.6621H57.8505C58.424 32.6621 58.974 32.8899 59.3796 33.2955C59.7851 33.701 60.013 34.2511 60.013 34.8246V155.7H35.793V34.8246C35.793 34.2511 36.0208 33.701 36.4264 33.2955C36.8319 32.8899 37.3819 32.6621 37.9555 32.6621Z" fill="#1B45A5" style="fill:#1B45A5;fill:color(display-p3 0.1059 0.2706 0.6471);fill-opacity:1;"/>
<path d="M79.475 103.523H99.37C99.9435 103.523 100.494 103.751 100.899 104.156C101.305 104.562 101.533 105.112 101.533 105.685V155.7H77.3125V105.685C77.3125 105.112 77.5403 104.562 77.9459 104.156C78.3514 103.751 78.9015 103.523 79.475 103.523Z" fill="#1B45A5" style="fill:#1B45A5;fill:color(display-p3 0.1059 0.2706 0.6471);fill-opacity:1;"/>
<path d="M120.995 106.845H140.89C141.463 106.845 142.013 107.073 142.419 107.478C142.824 107.884 143.052 108.434 143.052 109.007V155.7H118.832V109.007C118.832 108.434 119.06 107.884 119.465 107.478C119.871 107.073 120.421 106.845 120.995 106.845Z" fill="#1B45A5" style="fill:#1B45A5;fill:color(display-p3 0.1059 0.2706 0.6471);fill-opacity:1;"/>
<path d="M162.514 117.917H182.409C182.983 117.917 183.533 118.144 183.938 118.55C184.344 118.955 184.572 119.505 184.572 120.079V155.7H160.352V120.079C160.352 119.505 160.579 118.955 160.985 118.55C161.39 118.144 161.941 117.917 162.514 117.917Z" fill="#1B45A5" style="fill:#1B45A5;fill:color(display-p3 0.1059 0.2706 0.6471);fill-opacity:1;"/>
<path d="M204.038 124.145H223.933C224.506 124.145 225.056 124.372 225.462 124.778C225.867 125.183 226.095 125.734 226.095 126.307V155.7H201.875V126.307C201.875 125.734 202.103 125.183 202.508 124.778C202.914 124.372 203.464 124.145 204.038 124.145Z" fill="#1B45A5" style="fill:#1B45A5;fill:color(display-p3 0.1059 0.2706 0.6471);fill-opacity:1;"/>
</svg>
